<svg width="39" height="19" viewBox="0 0 39 19" fill="none" xmlns="http://www.w3.org/2000/svg">
<path d="M0.278915 0.273431C-0.059164 0.604863 -0.0898991 1.1235 0.186711 1.48897L0.278915 1.59368L7.90972 9.07414L0.278915 16.5546C-0.059164 16.886 -0.0898991 17.4047 0.186711 17.7701L0.278915 17.8748C0.616994 18.2063 1.14603 18.2364 1.51883 17.9652L1.62564 17.8748L9.92949 9.73426C10.2676 9.40283 10.2983 8.88419 10.0217 8.51872L9.92949 8.41401L1.62564 0.273431C1.25375 -0.0911438 0.650803 -0.0911438 0.278915 0.273431Z" fill="black" fill-opacity="0.3"/>
<path d="M14.4865 0.273431C14.1484 0.604863 14.1177 1.1235 14.3943 1.48897L14.4865 1.59368L22.1173 9.07414L14.4865 16.5546C14.1484 16.886 14.1177 17.4047 14.3943 17.7701L14.4865 17.8748C14.8246 18.2063 15.3536 18.2364 15.7264 17.9652L15.8332 17.8748L24.1371 9.73426C24.4752 9.40283 24.5059 8.88419 24.2293 8.51872L24.1371 8.41401L15.8332 0.273431C15.4614 -0.0911438 14.8584 -0.0911438 14.4865 0.273431Z" fill="black" fill-opacity="0.6"/>
<path d="M28.6945 0.273431C28.3565 0.604863 28.3257 1.1235 28.6023 1.48897L28.6945 1.59368L36.3253 9.07414L28.6945 16.5546C28.3565 16.886 28.3257 17.4047 28.6023 17.7701L28.6945 17.8748C29.0326 18.2063 29.5617 18.2364 29.9345 17.9652L30.0413 17.8748L38.3451 9.73426C38.6832 9.40283 38.7139 8.88419 38.4373 8.51872L38.3451 8.41401L30.0413 0.273431C29.6694 -0.0911438 29.0664 -0.0911438 28.6945 0.273431Z" fill="black"/>
</svg>
