<svg width="84" height="64" viewBox="0 0 84 64" fill="none" xmlns="http://www.w3.org/2000/svg">
<rect x="83.5985" y="0.580353" width="62.7357" height="82.9007" rx="31.3678" transform="rotate(90 83.5985 0.580353)" fill="#FFEC89"/>
<path d="M39.2855 21.2122L35.3991 25.1094" stroke="black" stroke-width="1.68042" stroke-miterlimit="10" stroke-linecap="round" stroke-linejoin="round"/>
<path d="M46.1342 21.2121L50.0206 25.1092" stroke="black" stroke-width="1.68042" stroke-miterlimit="10" stroke-linecap="round" stroke-linejoin="round"/>
<path d="M31.973 27.4924C31.973 25.5062 33.0359 25.3452 34.3564 25.3452L51.0617 25.3452C52.3822 25.3452 53.4451 25.5062 53.4451 27.4924C53.4451 29.8006 52.3822 29.6396 51.0617 29.6396L34.3564 29.6396C33.0359 29.6396 31.973 29.8006 31.973 27.4924Z" stroke="black" stroke-width="1.68042"/>
<path d="M33.5839 29.8015L35.0977 35.8566C35.4412 37.9394 36.2679 39.4639 39.3384 39.4639L45.8122 39.4639C49.1511 39.4639 49.645 38.0038 50.0315 35.9854L51.8351 29.8015" stroke="black" stroke-width="1.68042" stroke-linecap="round"/>
</svg>
